<svg xmlns="http://www.w3.org/2000/svg" width="1922" height="994.795" viewBox="0 0 1922 994.795">
  <path id="Path_10" data-name="Path 10" d="M0,6.23S162.06,68.75,278.29,66.367c18.444-.378,190.109-9.839,324.641-78.705,16.584-5.588,190.39-52.413,339.559-9.589C992.249-2,1177.421,47.043,1254.666,12.261,1534.951-101.183,1922,6.23,1922,6.23V938.374s-84.9-108.661-554.577-55.052c-115.071,13.134-262.346,64.463-403.576,30.8-77.573-22.806-271.409-61.328-430.308-15.367-155.258,37-326.371,77.475-420.878,43.4C57.077,922.284,0,938.374,0,938.374Z" transform="translate(0 39.807)" fill="#97bb87"/>
</svg>
