<svg xmlns="http://www.w3.org/2000/svg" width="1920" height="860.173" viewBox="0 0 1920 860.173">
  <path id="Path_6" data-name="Path 6" d="M0,0S161.891,54.059,278,52c18.425-.327,189.911-8.508,324.3-68.054,16.567-4.832,190.192-45.32,339.206-8.291C991.216-7.112,1176.2,35.29,1253.361,5.215,1533.354-92.877,1920,0,1920,0V806s-84.81-93.957-554-47.6c-114.952,11.357-262.073,55.739-403.156,26.628C885.352,765.306,691.717,732,532.984,771.739c-155.1,31.993-326.031,66.991-420.44,37.53C57.017,792.087,0,806,0,806Z" transform="translate(0 39.807)" fill="#f2cf63"/>
</svg>
